<svg xmlns="http://www.w3.org/2000/svg" viewBox="0 0 100 100"><path fill="#a1d3a2" d="M78.5 48A7.5 7.5 0 1 0 78.5 63 7.5 7.5 0 1 0 78.5 48zM60.5 14A7.5 7.5 0 1 0 60.5 29 7.5 7.5 0 1 0 60.5 14zM23 15A8 8 0 1 0 23 31 8 8 0 1 0 23 15zM22.5 63A8.5 8.5 0 1 0 22.5 80 8.5 8.5 0 1 0 22.5 63zM66 71A8 8 0 1 0 66 87 8 8 0 1 0 66 71z"/><path fill="#78a2d2" d="M65,51c0,7.736-6.264,14-14,14c-7.733,0-14-6.264-14-14c0-7.728,6.267-14,14-14C58.736,37,65,43.272,65,51z"/><path fill="#1f212b" d="M40.606 53c-.245 0-.458-.18-.495-.429C40.038 52.055 40 51.526 40 51c0-6.065 4.935-11 11-11 .175 0 .35.004.523.013.276.013.489.247.476.522s-.263.504-.523.476C51.319 41.004 51.16 41 51 41c-5.514 0-10 4.486-10 10 0 .479.034.96.102 1.429.039.273-.151.527-.424.566C40.653 52.998 40.629 53 40.606 53zM51 62c-3.39 0-6.539-1.527-8.641-4.19-.171-.217-.134-.531.083-.702.216-.17.532-.133.702.083C45.055 59.611 47.918 61 51 61c4.233 0 8.023-2.679 9.432-6.667.092-.26.378-.397.638-.305.26.092.397.378.305.639C59.825 59.053 55.656 62 51 62zM61.395 53c-.023 0-.047-.002-.071-.005-.273-.039-.464-.292-.425-.565C60.966 51.959 61 51.479 61 51c0-.16-.004-.318-.011-.477-.013-.275.2-.51.476-.522.282-.026.51.2.523.476C61.996 50.65 62 50.824 62 51c0 .525-.037 1.054-.111 1.57C61.854 52.82 61.64 53 61.395 53zM61.2 49c-.225 0-.429-.152-.485-.381-.08-.323-.175-.642-.285-.952-.092-.261.045-.547.305-.639.262-.092.546.045.638.305.121.342.225.691.312 1.048.066.268-.098.539-.366.604C61.28 48.995 61.24 49 61.2 49z"/><path fill="#1f212b" d="M51 66c-8.271 0-15-6.729-15-15s6.729-15 15-15 15 6.729 15 15S59.271 66 51 66zM51 38c-7.168 0-13 5.832-13 13s5.832 13 13 13 13-5.832 13-13S58.168 38 51 38zM78.5 64c-4.687 0-8.5-3.813-8.5-8.5s3.813-8.5 8.5-8.5 8.5 3.813 8.5 8.5S83.187 64 78.5 64zM78.5 49c-3.584 0-6.5 2.916-6.5 6.5s2.916 6.5 6.5 6.5 6.5-2.916 6.5-6.5S82.084 49 78.5 49zM60.5 30c-4.687 0-8.5-3.813-8.5-8.5s3.813-8.5 8.5-8.5 8.5 3.813 8.5 8.5S65.187 30 60.5 30zM60.5 15c-3.584 0-6.5 2.916-6.5 6.5s2.916 6.5 6.5 6.5 6.5-2.916 6.5-6.5S64.084 15 60.5 15zM23 32c-4.962 0-9-4.037-9-9s4.038-9 9-9 9 4.037 9 9S27.962 32 23 32zM23 16c-3.86 0-7 3.141-7 7s3.14 7 7 7 7-3.141 7-7S26.86 16 23 16z"/><path fill="#1f212b" d="M23.5 27.973c-.252 0-.468-.189-.497-.445-.03-.274.168-.521.442-.552.759-.084 1.474-.383 2.069-.864.214-.175.53-.14.703.074.174.215.141.529-.074.703-.744.603-1.639.977-2.589 1.081C23.536 27.972 23.518 27.973 23.5 27.973zM27.244 25c-.055 0-.112-.009-.167-.028-.26-.093-.396-.378-.304-.639C26.923 23.907 27 23.459 27 23c0-2.206-1.794-4-4-4-1.692 0-3.208 1.071-3.773 2.667-.092.26-.376.396-.638.305-.261-.093-.397-.378-.305-.639C18.99 19.34 20.885 18 23 18c2.757 0 5 2.243 5 5 0 .573-.096 1.134-.285 1.667C27.643 24.872 27.45 25 27.244 25zM22.5 81c-5.238 0-9.5-4.262-9.5-9.5s4.262-9.5 9.5-9.5 9.5 4.262 9.5 9.5S27.738 81 22.5 81zM22.5 64c-4.136 0-7.5 3.364-7.5 7.5s3.364 7.5 7.5 7.5 7.5-3.364 7.5-7.5S26.636 64 22.5 64zM66 88c-4.962 0-9-4.037-9-9s4.038-9 9-9 9 4.037 9 9S70.962 88 66 88zM66 72c-3.86 0-7 3.141-7 7s3.14 7 7 7 7-3.141 7-7S69.86 72 66 72z"/><path fill="#1f212b" d="M66 84c-2.757 0-5-2.243-5-5 0-.276.224-.5.5-.5S62 78.724 62 79c0 2.206 1.794 4 4 4 .913 0 1.805-.315 2.514-.889.215-.174.53-.14.703.074.174.215.141.529-.074.703C68.257 83.605 67.141 84 66 84zM70.473 80c-.018 0-.037-.001-.055-.003-.274-.03-.473-.277-.442-.552C69.992 79.299 70 79.15 70 79c0-.458-.077-.906-.228-1.333-.092-.261.044-.546.304-.639.263-.093.546.045.638.305C70.904 77.867 71 78.428 71 79c0 .188-.01.373-.03.555C70.941 79.811 70.725 80 70.473 80zM69 76.146c-.119 0-.238-.042-.333-.127C67.933 75.361 66.985 75 66 75c-.276 0-.5-.224-.5-.5S65.724 74 66 74c1.232 0 2.416.452 3.333 1.272.206.185.223.501.039.706C69.274 76.089 69.137 76.146 69 76.146z"/><path fill="#1f212b" d="M51.648 32.046H61.154V34.045H51.648z" transform="rotate(-70.84 56.4 33.046)"/><path fill="#1f212b" d="M67.499 50.845H69.5V56.229H67.499z" transform="rotate(-80.752 68.5 53.537)"/><path fill="#1f212b" d="M59.035 63.514H61.035V72.52000000000001H59.035z" transform="rotate(-26.87 60.036 68.021)"/><path fill="#1f212b" d="M34.109 26.47H36.109V43.748999999999995H34.109z" transform="rotate(-44.996 35.106 35.107)"/><path fill="#1f212b" d="M27.471 61.766H40.727000000000004V63.766H27.471z" transform="rotate(-39.689 34.103 62.77)"/></svg>