<svg xmlns="http://www.w3.org/2000/svg" viewBox="0 0 100 100"><circle cx="49.5" cy="50.5" r="34.5" fill="#fefdef"/><path fill="#8e9db5" d="M65.793,45.694l-16-11.6c-0.175-0.127-0.412-0.127-0.587,0l-16,11.6	c-0.185,0.135-0.255,0.376-0.172,0.589l6.857,17.4c0.076,0.19,0.26,0.316,0.465,0.316h19.429c0.216,0,0.408-0.139,0.475-0.344	l5.714-17.4C66.043,46.049,65.969,45.822,65.793,45.694z"/><path fill="#8e9db5" d="M62.71,18.62L49.5,26l-13.21-7.38C40.36,16.93,44.82,16,49.5,16S58.64,16.93,62.71,18.62z"/><path fill="#8e9db5" d="M26.2,42.93L15.11,53.21C15.04,52.32,15,51.41,15,50.5c0-8.55,3.11-16.38,8.27-22.4L26.2,42.93z"/><path fill="#8e9db5" d="M41.45,84.06c-9.01-2.16-16.65-7.85-21.36-15.53l15.01,1.79L41.45,84.06z"/><path fill="#8e9db5" d="M78.91,68.53C74.2,76.21,66.56,81.9,57.55,84.05l6.35-13.73L78.91,68.53z"/><path fill="#8e9db5" d="M84,50.5c0,0.91-0.04,1.82-0.11,2.71L72.8,42.93l2.93-14.82C80.89,34.13,84,41.96,84,50.5z"/><path fill="#1f212b" d="M49.5,26.5c-0.084,0-0.168-0.021-0.244-0.063l-13.21-7.38c-0.167-0.094-0.266-0.274-0.255-0.466	c0.011-0.19,0.13-0.359,0.308-0.433C40.346,16.395,44.854,15.5,49.5,15.5s9.154,0.895,13.401,2.658	c0.178,0.073,0.297,0.242,0.308,0.433c0.011,0.191-0.088,0.372-0.255,0.466l-13.21,7.38C49.668,26.479,49.584,26.5,49.5,26.5z M37.452,18.696L49.5,25.428l12.048-6.731C57.709,17.238,53.661,16.5,49.5,16.5S41.291,17.238,37.452,18.696z"/><path fill="#1f212b" d="M15.11,53.71c-0.062,0-0.123-0.011-0.182-0.034c-0.179-0.069-0.302-0.235-0.316-0.427	C14.538,52.31,14.5,51.385,14.5,50.5c0-8.342,2.979-16.412,8.39-22.726c0.125-0.145,0.322-0.21,0.507-0.158	c0.186,0.049,0.326,0.198,0.363,0.387l2.931,14.83c0.034,0.17-0.023,0.346-0.15,0.463l-11.09,10.28	C15.356,53.664,15.234,53.71,15.11,53.71z M22.982,29.228C18.149,35.234,15.5,42.746,15.5,50.5c0,0.529,0.014,1.074,0.042,1.629	l10.113-9.376L22.982,29.228z"/><path fill="#1f212b" d="M41.45,84.56c-0.039,0-0.078-0.005-0.116-0.014c-8.946-2.144-16.845-7.886-21.67-15.754	c-0.101-0.164-0.099-0.37,0.005-0.531s0.279-0.257,0.48-0.227l15.01,1.79c0.172,0.021,0.321,0.129,0.395,0.286l6.351,13.739	c0.08,0.174,0.054,0.379-0.067,0.527C41.74,84.494,41.598,84.56,41.45,84.56z M21.076,69.151	c4.534,6.898,11.541,11.992,19.479,14.162l-5.792-12.529L21.076,69.151z"/><path fill="#1f212b" d="M57.55,84.55c-0.147,0-0.291-0.065-0.387-0.184c-0.121-0.148-0.147-0.353-0.067-0.526l6.351-13.729	c0.073-0.157,0.223-0.266,0.395-0.286l15.01-1.79c0.198-0.027,0.377,0.065,0.48,0.227s0.105,0.367,0.005,0.531	c-4.827,7.872-12.727,13.61-21.67,15.744C57.627,84.545,57.588,84.55,57.55,84.55z M64.237,70.784l-5.792,12.521	c7.935-2.16,14.942-7.252,19.479-14.153L64.237,70.784z"/><path fill="#1f212b" d="M83.89,53.71c-0.124,0-0.246-0.046-0.34-0.134l-11.09-10.28c-0.127-0.117-0.185-0.293-0.15-0.463	l2.931-14.819c0.037-0.188,0.178-0.338,0.363-0.387c0.185-0.053,0.382,0.013,0.507,0.158c5.41,6.313,8.39,14.379,8.39,22.715	c0,0.885-0.038,1.81-0.112,2.749c-0.015,0.191-0.138,0.357-0.316,0.427C84.013,53.699,83.951,53.71,83.89,53.71z M73.345,42.753	l10.113,9.376c0.028-0.555,0.042-1.1,0.042-1.629c0-7.748-2.649-15.257-7.482-21.262L73.345,42.753z"/><rect width="1" height="8.5" x="49" y="26" fill="#1f212b"/><rect width="7.92" height="1" x="65.19" y="43.964" fill="#1f212b" transform="rotate(-22.86 69.15 44.463)"/><rect width="1" height="7.92" x="29.349" y="40.504" fill="#1f212b" transform="rotate(-67.184 29.849 44.462)"/><rect width=".999" height="7.858" x="61.451" y="62.982" fill="#1f212b" transform="rotate(-29.761 61.948 66.908)"/><path fill="#1f212b" d="M49.5,86C29.925,86,14,70.075,14,50.5S29.925,15,49.5,15S85,30.925,85,50.5S69.075,86,49.5,86z M49.5,17C31.028,17,16,32.028,16,50.5S31.028,84,49.5,84S83,68.972,83,50.5S67.972,17,49.5,17z"/><path fill="#1f212b" d="M49.5,86c-2.757,0-5.521-0.321-8.218-0.955c-0.022-0.004-0.044-0.008-0.065-0.013	c-9.074-2.175-17.085-7.999-21.979-15.979c-2.922-4.734-4.694-10.187-5.124-15.766C14.038,52.336,14,51.397,14,50.5	c0-8.461,3.022-16.647,8.51-23.051c3.613-4.242,8.246-7.615,13.397-9.753C40.215,15.907,44.788,15,49.5,15s9.285,0.907,13.594,2.696	c5.136,2.127,9.77,5.504,13.398,9.766C81.978,33.862,85,42.045,85,50.5c0,0.897-0.038,1.836-0.113,2.789	c-0.43,5.577-2.202,11.029-5.126,15.767c-4.896,7.981-12.906,13.803-21.979,15.967C55.084,85.671,52.297,86,49.5,86z M41.632,83.074	c0.02,0.004,0.039,0.008,0.059,0.013c5.144,1.215,10.551,1.21,15.626-0.01c8.561-2.042,16.12-7.535,20.741-15.069	c2.759-4.47,4.43-9.612,4.835-14.875C82.964,52.23,83,51.346,83,50.5c0-7.978-2.852-15.698-8.029-21.739	c-3.426-4.023-7.798-7.21-12.644-9.217C58.263,17.855,53.947,17,49.5,17s-8.763,0.855-12.826,2.544	c-4.86,2.017-9.232,5.199-12.643,9.204C18.852,34.792,16,42.517,16,50.5c0,0.846,0.036,1.73,0.107,2.631	c0.405,5.265,2.076,10.407,4.833,14.874C25.552,75.523,33.091,81.013,41.632,83.074z"/><path fill="#1f212b" d="M59.786,64H40.357c-0.205,0-0.39-0.126-0.465-0.316l-6.857-17.4	c-0.084-0.213-0.014-0.454,0.171-0.589l16-11.6c0.176-0.127,0.412-0.127,0.588,0l4,2.9c0.223,0.162,0.272,0.476,0.111,0.699	c-0.164,0.224-0.477,0.271-0.699,0.111L49.5,35.117l-15.393,11.16L40.698,63h18.726l5.602-17.057	c0.085-0.262,0.367-0.408,0.631-0.318c0.262,0.086,0.405,0.368,0.318,0.631l-5.714,17.4C60.193,63.861,60.002,64,59.786,64z"/><path fill="#1f212b" d="M58.5,41.525c-0.103,0-0.205-0.031-0.294-0.095l-2-1.45c-0.223-0.162-0.272-0.476-0.111-0.699	c0.165-0.225,0.477-0.271,0.699-0.11l2,1.449c0.223,0.162,0.272,0.476,0.111,0.699C58.807,41.454,58.654,41.525,58.5,41.525z"/><path fill="#1f212b" d="M61.5,43.7c-0.103,0-0.205-0.031-0.294-0.096l-1-0.726c-0.224-0.162-0.272-0.475-0.11-0.698	c0.162-0.225,0.476-0.271,0.698-0.11l1,0.726c0.224,0.162,0.272,0.475,0.11,0.698C61.807,43.629,61.654,43.7,61.5,43.7z"/><path fill="#1f212b" d="M36.541,69c-0.109,0-0.219-0.035-0.311-0.108c-0.217-0.171-0.253-0.485-0.081-0.702l0.792-1	c0.172-0.216,0.486-0.253,0.702-0.081c0.217,0.171,0.253,0.485,0.081,0.702l-0.792,1C36.834,68.935,36.688,69,36.541,69z"/><path fill="#1f212b" d="M38.916,66c-0.109,0-0.219-0.035-0.311-0.108c-0.217-0.171-0.253-0.485-0.081-0.702l1.584-2	c0.173-0.216,0.486-0.253,0.702-0.081c0.217,0.171,0.253,0.485,0.081,0.702l-1.584,2C39.209,65.935,39.063,66,38.916,66z"/></svg>