<svg xmlns="http://www.w3.org/2000/svg" viewBox="0 0 128 128"><path fill="#FFF" d="M55.7 35A41.5 42 0 1 0 55.7 119A41.5 42 0 1 0 55.7 35Z" transform="rotate(-14.999 55.687 77.01)"/><path fill="#C7D7E2" d="M95.9,66.7c-6-22.4-28.8-35.8-51-29.8c-2.1,0.6-4.2,1.3-6.1,2.2c16.7-1.7,32.8,6.9,40.9,21.7c-0.1,0-0.2,0-0.3,0.1c-3.2,0.9-5.1,4.1-4.2,7.3c0.9,3.2,4.1,5.1,7.3,4.2c0.5-0.1,1-0.3,1.4-0.6c4.4,19.7-5.7,39.4-23.5,47.4c2.1-0.2,4.3-0.6,6.4-1.2C88.8,112.1,101.9,89.1,95.9,66.7z"/><path fill="#C7D7E2" d="M50 79.4A7.5 7.5 0 1 0 50 94.4 7.5 7.5 0 1 0 50 79.4zM46.7 51A4 4 0 1 0 46.7 59 4 4 0 1 0 46.7 51z"/><path fill="#454B54" d="M56.4 122.1c-.4 0-.8 0-1.2 0-1.7 0-3-1.4-2.9-3.1 0-1.6 1.4-2.9 3-2.9 0 0 .1 0 .1 0 14.2.4 27.4-7 34.4-19.2 5-8.6 6.4-18.6 4-28.3C93.4 67 94.4 65.4 96 65c1.6-.4 3.2.6 3.6 2.2 2.7 11.2 1.1 22.8-4.6 32.7C87.1 113.7 72.4 122.1 56.4 122.1zM31.6 114c-.6 0-1.2-.2-1.8-.6C11.1 99.9 5.6 74.8 17.1 54.9c6-10.3 15.6-17.7 27.2-20.7 11.6-3 23.7-1.4 34.1 4.6 3.6 2.1 7 4.7 9.9 7.7 1.2 1.2 1.1 3.1-.1 4.2-1.2 1.2-3.1 1.1-4.2-.1-2.5-2.6-5.4-4.8-8.6-6.7-9-5.2-19.5-6.6-29.5-4-10 2.6-18.4 9-23.5 17.9-9.9 17.2-5.1 39 11.1 50.7 1.3 1 1.6 2.8.7 4.2C33.5 113.6 32.6 114 31.6 114z"/><path fill="#454B54" d="M30.1 122.6c-3.7 0-6.9-1-9.4-3.1-4.8-4-6.2-11-4.2-20.4.3-1.6 1.9-2.7 3.6-2.3 1.6.3 2.7 1.9 2.3 3.6-1.5 6.9-.7 12.1 2.2 14.6 6.9 5.8 27.1-3 46.1-25.3C88 69.2 93 44 93.1 43.7c.3-1.6 1.9-2.7 3.5-2.4 1.6.3 2.7 1.9 2.4 3.5-.2 1.1-5.4 27-23.8 48.6C59.6 111.8 42.2 122.6 30.1 122.6zM76.1 21.3c-.8 0-1.6-.3-2.1-.9-.6-.6-.9-1.3-.9-2.1s.3-1.6.9-2.1c1.1-1.1 3.1-1.1 4.2 0 .6.6.9 1.3.9 2.1s-.3 1.6-.9 2.1C77.6 20.9 76.9 21.3 76.1 21.3z"/><g><path fill="#454B54" d="M116.6,54.3c-0.8,0-1.6-0.3-2.1-0.9c-0.6-0.6-0.9-1.3-0.9-2.1c0-0.8,0.3-1.6,0.9-2.1c1.1-1.1,3.1-1.1,4.2,0c0.6,0.6,0.9,1.3,0.9,2.1c0,0.8-0.3,1.6-0.9,2.1C118.2,54,117.4,54.3,116.6,54.3z"/></g><g><path fill="#454B54" d="M105.9,34.6l-2.8-1.8c-0.7-0.5-1.1-1.3-0.9-2.2l1.3-7.6c0.3-1.8,0-3.6-0.9-5.2c-0.6-1-1.9-1.2-2.8-0.5c-1.4,1.2-2.3,2.8-2.7,4.6l-1.3,7.6c-0.2,0.9-0.8,1.5-1.7,1.7L91,31.8c-0.9,0.2-1.5,0.9-1.7,1.7l-0.4,2.2l5.6,1L96,37l3.4,0.6l1.5,0.3l5.6,1l0.4-2C107,35.9,106.7,35.1,105.9,34.6z"/></g></svg>