<svg xmlns="http://www.w3.org/2000/svg" viewBox="0 0 100 100"><path fill="#39c2d8" d="M33 71H67V84H33zM50.01 35C34.994 35 28 40.081 28 50.99V65c0 2.757 2.243 5 5 5h34c2.757 0 5-2.243 5-5V50.99C72 40.081 65.012 35 50.01 35z"/><path fill="#1f212b" d="M50,34c-6.617,0-12-5.383-12-12s5.383-12,12-12s12,5.383,12,12S56.617,34,50,34z M50,12 c-5.514,0-10,4.486-10,10s4.486,10,10,10s10-4.486,10-10S55.514,12,50,12z"/><path fill="#1f212b" d="M67,72H33c-3.86,0-7-3.14-7-7V50.99C26,38.885,33.854,33,50.01,33C66.153,33,74,38.885,74,50.99V65 C74,68.86,70.86,72,67,72z M50.01,35C34.994,35,28,40.081,28,50.99V65c0,2.757,2.243,5,5,5h34c2.757,0,5-2.243,5-5V50.99 C72,40.081,65.012,35,50.01,35z"/><path fill="#1f212b" d="M67 85H33c-.552 0-1-.448-1-1V71c0-.552.448-1 1-1h34c.552 0 1 .448 1 1v13C68 84.552 67.552 85 67 85zM34 83h32V72H34V83zM60.5 61h-21c-1.378 0-2.5-1.122-2.5-2.5v-2c0-.276.224-.5.5-.5s.5.224.5.5v2c0 .827.673 1.5 1.5 1.5h21c.827 0 1.5-.673 1.5-1.5v-9c0-.276.224-.5.5-.5s.5.224.5.5v9C63 59.878 61.878 61 60.5 61zM37.5 53c-.276 0-.5-.224-.5-.5v-3c0-.276.224-.5.5-.5s.5.224.5.5v3C38 52.776 37.776 53 37.5 53z"/><path fill="#fefdef" d="M47 61H53V71H47z"/><path fill="#fed5b3" d="M50 12A10 10 0 1 0 50 32A10 10 0 1 0 50 12Z"/><path fill="#1f212b" d="M52.5,71.5h-5c-0.276,0-0.5-0.224-0.5-0.5V60.5c0-0.276,0.224-0.5,0.5-0.5h5 c0.276,0,0.5,0.224,0.5,0.5v3c0,0.276-0.224,0.5-0.5,0.5S52,63.776,52,63.5V61h-4v9.5h4v-3c0-0.276,0.224-0.5,0.5-0.5 s0.5,0.224,0.5,0.5V71C53,71.276,52.776,71.5,52.5,71.5z"/></svg>