<?xml version="1.0" encoding="utf-8"?>
<svg xmlns="http://www.w3.org/2000/svg" viewBox="0 0 50 50" fill="#000000"><path d="M 12 0 C 10.90625 0 10 0.90625 10 2 L 10 4 L 4 4 C 2.839844 4 2 4.839844 2 6 L 2 13 L 48 13 L 48 6 C 48 4.839844 47.160156 4 46 4 L 40 4 L 40 2 C 40 0.90625 39.09375 0 38 0 L 36 0 C 34.90625 0 34 0.90625 34 2 L 34 4 L 16 4 L 16 2 C 16 0.90625 15.09375 0 14 0 Z M 12 2 L 14 2 L 14 8 L 12 8 Z M 36 2 L 38 2 L 38 8 L 36 8 Z M 2 15 L 2 46 C 2 47.105469 2.894531 48 4 48 L 46 48 C 47.105469 48 48 47.105469 48 46 L 48 15 Z M 10 24 L 12 24 L 12 28 L 10 28 Z M 19.4375 24 C 20.90625 24 22.0625 24.421875 22.878906 25.253906 C 24 26.402344 24.003906 27.859375 24 28.019531 C 24 30.65625 21.652344 32.109375 19.765625 33.28125 C 18.84375 33.855469 17.949219 34.40625 17.4375 35 L 24 35 L 24 37 L 15 37 L 15 36 C 15 33.882813 16.890625 32.710938 18.714844 31.578125 C 20.699219 30.347656 22 29.433594 22 28 C 22 27.523438 21.8125 26 19.4375 26 C 17.070313 26 17 27.796875 17 28 L 15 28 C 15 26.886719 15.796875 24 19.4375 24 Z M 30.5 24 C 31.425781 24 32.191406 24.207031 32.777344 24.613281 C 33.371094 25.027344 33.820313 25.542969 34.15625 26.1875 C 34.480469 26.820313 34.707031 27.527344 34.824219 28.285156 C 34.9375 29.046875 35 29.792969 35 30.5 C 35 31.210938 34.9375 31.953125 34.824219 32.714844 C 34.707031 33.472656 34.480469 34.179688 34.15625 34.8125 C 33.820313 35.457031 33.371094 35.972656 32.777344 36.386719 C 32.191406 36.792969 31.425781 37 30.5 37 C 29.574219 37 28.808594 36.792969 28.222656 36.386719 C 27.628906 35.972656 27.179688 35.457031 26.84375 34.8125 C 26.519531 34.179688 26.292969 33.472656 26.175781 32.714844 C 26.0625 31.953125 26 31.207031 26 30.5 C 26 29.789063 26.0625 29.046875 26.175781 28.285156 C 26.292969 27.527344 26.519531 26.820313 26.84375 26.1875 C 27.179688 25.542969 27.628906 25.027344 28.222656 24.613281 C 28.808594 24.207031 29.574219 24 30.5 24 Z M 30.5 26 C 30 26 29.605469 26.089844 29.363281 26.257813 C 29.039063 26.484375 28.804688 26.753906 28.621094 27.105469 C 28.394531 27.546875 28.238281 28.046875 28.152344 28.59375 C 28.050781 29.25 28 29.894531 28 30.5 C 28 31.105469 28.050781 31.75 28.152344 32.410156 C 28.238281 32.957031 28.394531 33.457031 28.625 33.894531 C 28.804688 34.25 29.039063 34.515625 29.363281 34.746094 C 29.605469 34.910156 30 35 30.5 35 C 31 35 31.394531 34.910156 31.636719 34.742188 C 31.960938 34.515625 32.195313 34.246094 32.378906 33.894531 C 32.605469 33.453125 32.761719 32.953125 32.847656 32.40625 C 32.949219 31.75 33 31.105469 33 30.5 C 33 29.894531 32.949219 29.25 32.847656 28.589844 C 32.761719 28.042969 32.605469 27.542969 32.375 27.105469 C 32.195313 26.75 31.960938 26.484375 31.636719 26.253906 C 31.394531 26.089844 31 26 30.5 26 Z" fill="#000000"/></svg>
