<?xml version="1.0" encoding="utf-8"?>
<svg xmlns="http://www.w3.org/2000/svg" viewBox="0 0 50 50" fill="#000000"><path d="M 26 3 C 25.627479 3 25.260327 3.0231776 24.896484 3.0566406 C 24.81213 3.064386 24.728378 3.0725401 24.644531 3.0820312 C 24.292152 3.1219803 23.944011 3.1721946 23.601562 3.2421875 C 23.596456 3.2432287 23.591041 3.2430929 23.585938 3.2441406 C 23.582698 3.2448071 23.57941 3.2454246 23.576172 3.2460938 C 23.235992 3.3163877 22.903221 3.4072697 22.574219 3.5058594 C 22.479896 3.5340399 22.38631 3.5633216 22.292969 3.59375 C 22.02102 3.6826594 21.753269 3.7811599 21.490234 3.8886719 C 21.391368 3.9289644 21.292852 3.9688823 21.195312 4.0117188 C 20.941017 4.1237237 20.691985 4.244215 20.447266 4.3730469 C 20.334758 4.4320922 20.223663 4.4922104 20.113281 4.5546875 C 19.99812 4.6200662 19.888148 4.692674 19.775391 4.7617188 C 19.427752 4.9739499 19.092839 5.201867 18.769531 5.4472656 C 18.712456 5.4907068 18.653927 5.5317383 18.597656 5.5761719 C 17.818226 6.1899197 17.118634 6.8985874 16.511719 7.6835938 C 16.490906 7.7105628 16.47176 7.7384758 16.451172 7.765625 C 16.157956 8.1515677 15.886229 8.552331 15.640625 8.9726562 C 15.635144 8.9820436 15.628504 8.9905966 15.623047 9 L 15.625 9 C 15.257479 9.6327819 14.94948 10.301215 14.701172 11 L 14.699219 11 C 14.696957 11.006371 14.695611 11.013155 14.693359 11.019531 C 14.463837 11.669092 14.290891 12.34413 14.175781 13.039062 C 14.156507 13.154494 14.136963 13.27018 14.121094 13.386719 C 14.093705 13.58892 14.067919 13.790865 14.050781 13.996094 C 14.050674 13.997391 14.050888 13.998703 14.050781 14 C 14.02328 14.33063 14 14.662414 14 15 C 14 15.337586 14.02328 15.66937 14.050781 16 C 14.050889 16.001297 14.050673 16.002609 14.050781 16.003906 C 14.067919 16.209135 14.093705 16.41108 14.121094 16.613281 C 14.137 16.72982 14.156502 16.845506 14.175781 16.960938 C 14.290891 17.65587 14.463837 18.330908 14.693359 18.980469 C 14.695611 18.986845 14.696957 18.993629 14.699219 19 L 14.701172 19 C 14.94948 19.698785 15.257479 20.367218 15.625 21 L 15.623047 21 C 15.628506 21.009403 15.635141 21.017956 15.640625 21.027344 C 15.886229 21.447669 16.157956 21.848432 16.451172 22.234375 C 16.471758 22.261515 16.490909 22.289446 16.511719 22.316406 C 17.118634 23.101413 17.818226 23.81008 18.597656 24.423828 C 18.653944 24.468276 18.712439 24.509279 18.769531 24.552734 C 19.092839 24.798133 19.427752 25.02605 19.775391 25.238281 C 19.888141 25.307326 19.998128 25.379934 20.113281 25.445312 C 20.223663 25.50779 20.334758 25.567908 20.447266 25.626953 C 20.691965 25.755785 20.941039 25.876276 21.195312 25.988281 C 21.292852 26.031118 21.391368 26.071036 21.490234 26.111328 C 21.753246 26.21884 22.021042 26.317341 22.292969 26.40625 C 22.38631 26.436678 22.479896 26.46596 22.574219 26.494141 C 23.242194 26.694324 23.933267 26.83733 24.644531 26.917969 C 24.728378 26.92746 24.81213 26.935614 24.896484 26.943359 C 25.260314 26.976822 25.627479 27 26 27 C 26.419681 27 26.834804 26.977509 27.246094 26.935547 C 27.307537 26.929181 27.366563 26.915495 27.427734 26.908203 C 29.789873 26.630804 31.989491 25.673979 33.798828 24.119141 C 33.808284 24.111049 33.816741 24.10187 33.826172 24.09375 C 34.113062 23.84569 34.391879 23.586107 34.658203 23.308594 C 34.658203 23.308594 34.658203 23.306641 34.658203 23.306641 C 34.979343 22.972127 35.273672 22.612412 35.554688 22.242188 C 35.585761 22.200707 35.61598 22.159019 35.646484 22.117188 C 35.901401 21.772197 36.136011 21.413015 36.353516 21.041016 C 36.361792 21.026878 36.372635 21.014165 36.380859 21 L 36.378906 21 C 37.095246 19.763463 37.594729 18.389032 37.832031 16.925781 C 37.849896 16.816792 37.866059 16.707377 37.880859 16.597656 C 37.950991 16.073491 38 15.542702 38 15 C 38 14.451533 37.950588 13.915913 37.878906 13.386719 C 37.863 13.27018 37.843498 13.154494 37.824219 13.039062 C 37.709109 12.34413 37.536163 11.669092 37.306641 11.019531 C 37.304389 11.013155 37.303043 11.006371 37.300781 11 L 37.298828 11 C 37.05052 10.301215 36.742521 9.6327819 36.375 9 L 36.376953 9 C 36.371496 8.9905966 36.364856 8.9820436 36.359375 8.9726562 C 36.113771 8.552331 35.842044 8.1515677 35.548828 7.765625 C 35.52824 7.7384758 35.509094 7.7105628 35.488281 7.6835938 C 34.881366 6.8985874 34.181774 6.1899197 33.402344 5.5761719 C 33.346073 5.5317383 33.287544 5.4907068 33.230469 5.4472656 C 32.907161 5.201867 32.572248 4.9739499 32.224609 4.7617188 C 32.111852 4.692674 32.00188 4.6200662 31.886719 4.5546875 C 31.776337 4.4922104 31.665242 4.4320922 31.552734 4.3730469 C 31.308015 4.244215 31.058983 4.1237237 30.804688 4.0117188 C 30.707148 3.9688823 30.608632 3.9289644 30.509766 3.8886719 C 30.246731 3.7811599 29.97898 3.6826594 29.707031 3.59375 C 29.61369 3.5633216 29.520104 3.5340399 29.425781 3.5058594 C 29.093647 3.4063312 28.757582 3.3148252 28.414062 3.2441406 C 28.408959 3.2430929 28.403544 3.2432287 28.398438 3.2421875 C 28.055989 3.1721946 27.707848 3.1219803 27.355469 3.0820312 C 27.271622 3.0725401 27.18787 3.064386 27.103516 3.0566406 C 26.739673 3.0231776 26.372521 3 26 3 z M 26 5 C 27.389558 5 28.710933 5.2834454 29.912109 5.7929688 C 30.444667 6.69153 30.900582 7.7643103 31.242188 9 L 33.994141 9 C 34.457106 9.6164554 34.854028 10.28409 35.166016 11 L 31.677734 11 C 31.834734 11.946 31.936563 12.948 31.976562 14 L 35.951172 14 C 35.983711 14.329171 36 14.6621 36 15 C 36 15.33782 35.98377 15.671091 35.951172 16 L 31.974609 16 C 31.936609 17.052 31.834734 18.054 31.677734 19 L 35.158203 19 C 34.845232 19.714822 34.452352 20.383968 33.988281 21 L 31.242188 21 C 30.901206 22.232205 30.446701 23.302125 29.916016 24.199219 C 28.71426 24.711889 27.392707 25 26 25 C 24.610442 25 23.289067 24.716555 22.087891 24.207031 C 21.555333 23.30847 21.099418 22.23569 20.757812 21 L 18.005859 21 C 17.542894 20.383545 17.145972 19.71591 16.833984 19 L 20.322266 19 C 20.166266 18.054 20.062437 17.052 20.023438 16 L 16.048828 16 C 16.016289 15.670829 16 15.3379 16 15 C 16 14.6621 16.016289 14.329171 16.048828 14 L 20.023438 14 C 20.062438 12.948 20.165266 11.946 20.322266 11 L 16.833984 11 C 17.145972 10.28409 17.542894 9.6164554 18.005859 9 L 20.757812 9 C 21.099418 7.7643103 21.555333 6.69153 22.087891 5.7929688 C 23.289067 5.2834454 24.610442 5 26 5 z M 26 5 C 24.869 5 23.661094 6.541 22.871094 9 L 29.128906 9 C 28.338906 6.541 27.131 5 26 5 z M 26 25 C 27.131 25 28.338906 23.459 29.128906 21 L 22.871094 21 C 23.661094 23.459 24.869 25 26 25 z M 22.365234 11 C 22.189234 11.927 22.069438 12.934 22.023438 14 L 29.976562 14 C 29.929562 12.934 29.812719 11.927 29.636719 11 L 22.365234 11 z M 22.023438 16 C 22.070438 17.066 22.187281 18.073 22.363281 19 L 29.634766 19 C 29.810766 18.073 29.930562 17.066 29.976562 16 L 22.023438 16 z M 13.400391 26 C 10.900391 26 8.7 26.899609 0.5 30.599609 C 0 30.799609 -0.2 31.400391 0 31.900391 L 5.3007812 43.699219 C 5.4007812 43.999219 5.7003906 44.200781 5.9003906 44.300781 C 6.2003906 44.400781 6.4992188 44.299219 6.6992188 44.199219 L 9.4003906 42.400391 C 10.600391 41.600391 11.099219 41.500781 12.699219 42.300781 L 14.800781 43.400391 C 17.300781 44.700391 20.699219 46.5 21.699219 47 C 23.299219 47.8 24.599219 48.099609 25.699219 48.099609 C 27.699219 48.099609 28.999219 47.3 30.199219 46.5 C 31.399219 45.7 46.000781 36.200781 47.300781 35.300781 C 48.900781 34.200781 49.900391 32.900391 49.900391 31.900391 C 50.000391 29.100391 47.300391 28.400391 44.900391 29.900391 L 34.199219 37.099609 C 32.499219 38.099609 31 38 30 38 L 24 38 C 21.3 38 18.000391 37 17.900391 37 C 17.600391 36.9 17.499609 36.600391 17.599609 36.400391 C 17.699609 36.100391 17.899219 35.999609 18.199219 36.099609 L 18.300781 36.099609 C 18.600781 36.199609 21.900781 37.099609 24.300781 37.099609 L 30 37.099609 C 30.8 37.099609 31.400781 36.899609 31.800781 36.599609 C 32.200781 36.299609 32.499219 35.999609 32.699219 35.599609 C 32.699219 35.499609 32.800781 35.500391 32.800781 35.400391 L 32.800781 35.300781 C 32.900781 35.000781 32.900391 34.8 32.900391 34.5 C 32.900391 33.3 31.900391 32.1 29.900391 32 C 28.300391 31.9 26.100781 31.5 24.300781 31 C 23.300781 30.7 22.599219 30.399219 22.199219 30.199219 C 21.899219 29.999219 21.599219 29.700781 21.199219 29.300781 C 19.999219 28.000781 18.200391 26 13.400391 26 z M 35.099609 26 C 33.999609 26 32.800781 26.399609 31.800781 27.099609 C 31.100781 27.499609 28.100781 29.4 26.300781 30.5 C 27.600781 30.8 29 31 30 31 C 30.7 31 31.400391 31.200391 31.900391 31.400391 L 38.400391 27 C 38.400391 27 36.899609 26 35.099609 26 z M 41.699219 27.099609 C 40.699219 27.099609 39.500781 27.499609 37.800781 28.599609 L 32.800781 32 C 33.600781 32.7 34 33.6 34 34.5 C 34 35.1 33.800391 35.800391 33.400391 36.400391 L 33.5 36.300781 L 33.599609 36.199219 L 44.599609 28.900391 C 44.299609 27.600391 42.699219 27.099609 41.699219 27.099609 z" fill="#000000"/></svg>
