<svg xmlns="http://www.w3.org/2000/svg" viewBox="0 0 48 48"><path fill="#dd2c00" d="M39.49,36c-2.66,5.9-8.6,10-15.49,10S11.17,41.9,8.51,36V22c2.66-5.9,8.6-10,15.49-10	s12.83,4.1,15.49,10V36z"/><path fill="#ff3d00" d="M35.398,16.4l-2.4,1.6l-3-2l-3,2l-3-2l-3,2l-3-2l-3,2l-2.4-1.6c1.5-1.36,3.25-2.46,5.16-3.21	c0.75-0.3,1.24-1.04,1.24-1.85V10h10v1.34c0,0.81,0.48,1.55,1.23,1.84C32.148,13.93,33.898,15.03,35.398,16.4z"/><path fill="#ff3d00" d="M35.398,41.6c-3.45,3.14-8.2,4.86-13.34,4.29c-3.6-0.4-6.89-1.96-9.46-4.29l2.4-1.6l3,2l3-2l3,2l3-2	l3,2l3-2L35.398,41.6z"/><path fill="#dd9f05" d="M23.166,8.555C22.944,8.222,20.998,5.238,20.998,3c0-1.654,1.346-3,3-3s3,1.346,3,3	c0,2.238-1.946,5.222-2.168,5.555H23.166z M23.998,2c-0.551,0-1,0.448-1,1c0,0.851,0.498,2.042,1,3.013c0.502-0.971,1-2.162,1-3.013	C24.998,2.448,24.549,2,23.998,2z"/><path fill="#ffc107" d="M20.994,6h6.008c1.102,0,1.996,0.895,1.996,2v3h-10V8C18.998,6.895,19.891,6,20.994,6z"/><path fill="#43a047" d="M41,29c0,2.5-0.54,4.87-1.51,7H8.51C7.54,33.87,7,31.5,7,29s0.54-4.87,1.51-7h30.98	C40.46,24.13,41,26.5,41,29z"/><path fill="#fafafa" d="M17.5,32.875h-5.342v-1.173l2.461-2.623c0.607-0.7,0.909-1.256,0.909-1.669	c0-0.334-0.071-0.589-0.216-0.763c-0.143-0.174-0.352-0.261-0.625-0.261c-0.27,0-0.489,0.117-0.658,0.349	c-0.168,0.232-0.252,0.523-0.252,0.872H12c0-0.476,0.117-0.916,0.352-1.32s0.561-0.718,0.979-0.946	C13.747,25.114,14.214,25,14.729,25c0.827,0,1.465,0.194,1.911,0.581c0.447,0.388,0.67,0.944,0.67,1.669	c0,0.306-0.056,0.603-0.168,0.893s-0.287,0.594-0.523,0.911c-0.237,0.319-0.619,0.744-1.144,1.277l-0.988,1.158H17.5V32.875z"/><path fill="#fafafa" d="M24.125,29.713c0,1.051-0.235,1.862-0.702,2.431C22.955,32.714,22.296,33,21.445,33	c-0.858,0-1.521-0.287-1.99-0.861c-0.47-0.573-0.704-1.382-0.704-2.426v-1.421c0-1.051,0.234-1.862,0.701-2.432	c0.468-0.569,1.129-0.855,1.984-0.855c0.854,0,1.516,0.287,1.986,0.861c0.47,0.573,0.704,1.384,0.704,2.431V29.713z M22.34,28.062	c0-0.559-0.072-0.978-0.217-1.253c-0.144-0.276-0.374-0.414-0.688-0.414c-0.308,0-0.531,0.129-0.67,0.385	c-0.14,0.257-0.214,0.646-0.225,1.165v1.988c0,0.581,0.072,1.005,0.217,1.275c0.144,0.269,0.374,0.404,0.688,0.404	c0.304,0,0.528-0.132,0.673-0.394c0.144-0.262,0.219-0.672,0.222-1.232V28.062z"/><path fill="#fafafa" d="M29,32.875h-1.766v-5.82L25.5,27.58v-1.385L28.838,25H29V32.875z"/><path fill="#fafafa" d="M34.19,29.884c-0.384,0.349-0.815,0.524-1.291,0.524c-0.698,0-1.251-0.239-1.661-0.716	c-0.409-0.478-0.613-1.116-0.613-1.914c0-0.499,0.114-0.962,0.344-1.389c0.23-0.427,0.551-0.766,0.966-1.015	C32.349,25.124,32.806,25,33.307,25c0.508,0,0.968,0.129,1.378,0.387c0.411,0.259,0.731,0.624,0.96,1.096	c0.23,0.472,0.347,1.016,0.355,1.633v0.689c0,0.859-0.167,1.603-0.501,2.234c-0.333,0.631-0.809,1.115-1.425,1.454	C33.457,32.83,32.737,33,31.916,33h-0.111v-1.443l0.339-0.006C33.37,31.491,34.053,30.936,34.19,29.884z M33.381,29.109	c0.388,0,0.666-0.169,0.835-0.508v-0.748c0-0.499-0.082-0.868-0.248-1.107c-0.166-0.239-0.39-0.358-0.672-0.358	c-0.25,0-0.459,0.136-0.629,0.407c-0.169,0.271-0.254,0.598-0.254,0.983c0,0.407,0.086,0.73,0.26,0.97	C32.845,28.989,33.081,29.109,33.381,29.109z"/></svg>