<svg xmlns="http://www.w3.org/2000/svg" width="512" height="512" viewBox="0 0 512 512"><path fill="#D6E5E5" d="M213.8 284.4c-.1-11.4-1-22.3-2.6-33.6-2.8-19.6-3.9-39.5-2.8-59.3l-20-1.6c.8 6.4 1.8 12.8 1.6 19.2-.2 8.7-2.4 17.5-1.5 26.2 1.6 16.5 4.6 32.7 3.5 49.3-.3 4.4-6.1 7.8-9.4 3.8-12.2-14.6-17.3-33-25.8-49.7-4.9-9.5-9.9-18.9-14.3-28.6-1.5-3.2-2.8-8.4-5.4-10.9-3.3-3.3-9-2.1-13.3-2.3-1.5 23 0 46.3 3.3 69.2 2.6 18.1 6.2 36.5 4.3 54.8l8.4.7c1.7.8 3.9.3 5.6-.5.9-.4 1.3-1.1 1.3-1.9.1 0 .2 0 .3.1 0-15.2-2.9-30.3-3.1-45.6 0-1.9.8-3.3 1.9-4.2 1.9-3.5 7.3-5 9.5-.4 8.3 17.6 21.2 32.5 30.4 49.6.3.4.6.8.9 1.2.6-.2 1.2-.4 1.9-.4 9.8-.3 18.2-6 27.8-7.2C216.6 303 213.8 293.5 213.8 284.4zM306 301.1c-2.2-5.4-6.4-6.6-11.9-6.9-6-.3-12.3.1-18.2-.7-5.2-.7-11.5-2.9-12.7-8.8-1-5.1 0-11.8 3.1-16.1 2.8-4 7.1-4.9 11.9-5 8.1 0 15.9 2 23.8 3.2.8-7.6 1.6-15.2 2-22.8-6.6.5-13.2.7-19.8.8-4.8.1-11.9 1.5-16.5-.4-4.5-1.9-6.9-5.3-7.8-10.1-1.2-6.8-2.9-12.6-.1-19.3.9-2.1 2.7-4.4 5.3-4 13.3 1.8 26.6.1 39.9-1.7-.2-5-1-10.1-2.2-14.9-.6-2.4-.8-5.5-3.7-5.9-3.4-.5-6.9.3-10.3.2-9.5-.1-19-1.2-28.6-1.5-7.5-.2-14.8 1.1-22.2.7.3 23 4.3 45.7 6.5 68.6 1.2 12 1 23.8.9 35.9 0 5.2-.4 11 .8 16.1.5 2.1 1.6 3.7 3.7 4.4 5 1.8 10.4 1.9 15.7 1.9 4.2-3.9 13.5-2.5 18.6-2.3 5.3.3 10.7.6 16 .8 2.1.1 4.3.2 6.4.1.6 0 1.1-.1 1.4-.1C308.1 309.3 307.7 305.2 306 301.1z"/><path fill="#EF4823" d="M456.4,268c0.1-9.8,2.2-23.3,11.5-28.1c-2.1-1.1-4.9-2.2-5.9-2.8c-3.6-2.1-6.6-4.7-9.3-7.9c-5.7-6.7-7.4-14.7-6.9-23.2c0.5-7.1,2.1-19.3,7.4-26.5c-13.6-7.7-25.6-18.8-29-34.7c-1.4-6.2-3.4-18-1-26.3c-6.2-1.1-12.4-1-18.3-4c-6.7-3.4-12.8-8-18.2-13.2c-8.1-8-10.4-19.3-8.7-30.1c-0.6,0.4-1.2,0.8-1.7,1.2c-1.6,1.1-3.1,2.3-4.6,3.5c-2.8,2.2-5.7,4.5-9,6c-10.6,4.8-21.7,6.4-32.9,2c-12-4.7-23.8-13.3-29.8-24.8c-2.1,3.3-4.9,5.8-8.5,7.8c-8,4.5-16.5,7.6-25.7,8c-14.7,0.6-29.5-2.2-41.7-10c-1.3,10.8-4.9,21.7-14.2,27.8c-11,7.2-22.4,3.1-33.7-0.4v6.8h0.5c-0.4,3.2-0.8,6.3-2.6,9.1c-3.9,6.1-11.8,8.7-18.6,10.2c-13.2,2.9-26.7,0.4-39.3-4.1c1,6.9,2.8,13.7,2.5,20.6c-0.4,9.6-3.5,18.2-10.7,24.8c-9.7,8.9-22.8,12.3-35.8,13.8c8.6,11.1,14.6,23.4,13.4,38.5c-1.3,15.8-12.2,25.4-24.5,33.5c3.4,4.2,7.2,8,10.6,12.3c4.7,6.1,6.6,12.4,8,19.8c1.4,7.2,2.6,15.8,0.5,23c-1.5,5.2-4.9,8.4-8.6,11.5c5.3,3.1,10.6,6.2,15.2,10.2c6.8,5.9,11.9,13.3,15,21.8c3.3,9.1,5.2,21.6,0.6,30.3c4.8,1.3,9.3,3.2,13.7,5.6c6.6,3.7,13.7,7.8,18.3,13.9c4.6,6,9.4,14.9,8.9,22.8c10.5-0.3,21.3-1.5,30.5,4.4c9.8,6.3,13.9,15.9,20.5,25c9.3-2.9,17.6-8.5,27.1-10.6c11.2-2.5,23.1-2.9,34.4-0.9c9.5,1.7,17.8,4.5,25.6,10.3c4.9,3.7,9.5,7.8,14.6,11.1c5.5-3.5,8.8-9.6,13.4-14c5.4-5.2,11.6-9.6,18.4-12.8c6.8-3.2,14.5-5.7,22.1-5.8c6.5-0.1,13.6,0.9,20-0.9c2.2-34.7,36.1-53.7,68.1-55.6c0.1-0.4,0.2-0.8,0.4-1.1c3-7,0.1-15.9,0.6-23.2c0.5-7.4,3.2-14.2,7.5-20.2c6.8-9.4,16.5-18.9,28.1-21.8C466.8,290,456.2,282.2,456.4,268z M226.3,318.9c-0.4,2.3-3.1,4.1-5.3,4c-6.7-0.3-12.9,2.2-19.2,4.4c-3.3,0.2-6.6,0.4-9.9,0.6c-3.9,0.2-7.7,0.3-11.6,0.7c-0.5,0.1-1,0.1-1.4,0.2c-0.5-0.4-1-1-1.3-1.7c-6-12.1-14.2-23-21.6-34.4c1.1,11.1,2.4,22.1,1.6,33.3c-0.1,1.5-0.8,3.1-1.9,4.2c-10.6-0.1-21.2,0.9-31.8,1c-3.1-0.7-4.8-3.5-4.2-6.8c3.7-20.6-1.8-42-4.4-62.4c-2.7-21.9-4.2-44-2.7-66c0.5-1.2,0.9-2.4,1.1-3.7c0.9-0.9,2-1.7,3.2-2.4c0.5-0.1,0.9-0.2,1.4-0.2c0.1-0.2,0.1-0.5,0.2-0.7c2.5-1.3,5.5-2.2,8.5-2.9c8.7,0.4,16.8,1.3,21,10.6c4.9,10.5,9.5,21.2,15.1,31.3c6.6,11.9,10.9,25.3,17.2,37.5c-0.9-10-2.5-20-3.1-30.2c-0.5-8.8,1.6-17.4,1.5-26.2c0-8.4-1.6-16.7-2.2-25.1c-0.2-2.8,2.7-5.7,5.5-5.5l31.9,2.5c2.8,0.2,5.7,2.4,5.5,5.5c-1.7,23,0,45.8,3.2,68.6c1.6,11.6,1,23.1,1.9,34.7C225.6,299.6,227.9,309.1,226.3,318.9z M318.2,324.6c0,0.1,0,0.2,0,0.3c-11.6-0.2-23.2,0.2-34.8,0.2c-5.2,0-10.3,0.3-15.4,0.8c-10.9,0-23.8,0.3-30-9c-5.1-7.5-3.7-19.6-3.5-28.2c0.3-11.4,0.1-22.6-1.1-34c-2.5-23.2-6.4-46.4-6.4-69.8c0-1.6,0.6-2.9,1.5-3.8c0.7-2.7,3.2-5.1,6.7-4.4c6.6,1.2,13-0.5,19.6-0.6c5.5-0.1,10.9,0.4,16.4,0.8c9.4,0.7,18.8-0.1,28.2,0.6c8.3,0.6,12.3,6.5,14,14.1c1.7,7.3,3,15.1,2.5,22.5c-0.1,2.2-1.6,5-4.1,5.3c-14.1,1.9-28.3,4.2-42.6,3.1c-0.3,3.4,0.5,6.7,1.5,10.2c0-0.1,0.2,0.8,0.4,1.3c0.1,0,0.1,0,0.2,0.1c1.2,0.2,2.5,0,3.7,0c11.5-0.5,23-0.4,34.6-1.5c3-0.3,5.5,2.7,5.5,5.5c0,11.7-1.8,23.3-2.7,34.9c-0.2,2.8-2.4,5.8-5.5,5.5c-8.9-0.8-17.5-3.6-26.5-3.8c-1.6,0-3.3-0.1-4.9,0.2c-0.2,0.2-0.3,0.5-0.5,0.9c-0.4,1.2-0.8,2.3-1,3.6c-0.3,1.9-0.4,3,2,3.2c2.5,0.2,5.1,0,7.6,0.2c9.1,0.6,22.2-0.9,28.7,7.3C320.2,300.3,319.3,312.4,318.2,324.6z M439.8,194.8c-3.6,42.6-24.2,81.7-26.8,124.3c-0.2,2.5-1.5,4.2-3.5,5c-2.1,0.2-4.2,0.4-6.3,0.5c-3.9-0.4-8-1.9-10.2-5c-1-0.6-1.9-1.7-2.5-3c-3.2-8.6-8.8-15.7-10.8-24.8c-2.7,7.3-8.5,14.2-9.4,21.9c-0.3,2.4-1.8,4-3.7,4.8c-0.3,0.3-0.7,0.6-1.2,0.9c-0.4,0.2-0.8,0.3-1.2,0.5c-6.1-0.3-12.1-1.1-18.2-1.5c0-0.2-0.1-0.4-0.1-0.6c-1.3-10-3.9-19.7-6.1-29.5c-2.8-13-5.3-26-8-39c-2.8-13.3-5.5-26.5-7.9-39.8c-1.1-6-2.4-11.8-4.4-17.6c-1.1-3.2-2.9-7-3.5-10.6c-0.2-0.7-0.4-1.4-0.3-2.3l0.1-1.1c0.1-0.7,0.2-1.2,0.4-1.8c-0.1-1.6,0.3-3.1,1.3-4.2c5.9,1.1,12.3,1,18.1,1.7c6.7,0.8,13.4,2,20.1,3c1.5,2,1.9,4.7,0.1,6.5c0,0.1,0,0.3,0.1,0.4c0.4,2.1,0.9,4.2,1.4,6.4c1.4,5.7,2.9,11.3,4.5,16.8c1.2,4.1,2.4,8.1,3.7,12.1c0.4-0.9,0.7-1.8,1.1-2.7c2.2-5.4,4.7-11.4,9.1-15.4c2.5-2.4,6.9-2,8.6,1.2c3.8,7.2,5.4,15.5,9.5,22.4c0.1-2.4,0.2-4.7,0.3-7c0.6-9,2.5-18.7,5.2-27.3c0.8-2.5,2.8-3.9,5.3-4c4.6-0.3,9.3,0.5,13.8,1.2c2.2,0.4,4.5,0.7,6.7,1.1c0.4,0.1,4,0.6,2.3,0.4c1.6,0.2,2.9,0.9,3.7,1.9C434.4,188.2,440.2,189.6,439.8,194.8z"/><path fill="#D6E5E5" d="M427.3,199.7c-6.2-0.7-12.4-2.4-18.7-2.8c-2.1,7.8-3.4,16.2-3.9,24.2c-0.5,8.1-1,16.2-4.5,23.6c-2.6,5.5-9.7,1.9-10.2-2.8c-0.7-5.8-5.5-10.8-7.8-16c-1.5-3.3-2.6-6.7-3.8-10c-0.8,1.9-1.6,3.8-2.3,5.5c-1.9,4.8-3.6,9.7-4.8,14.7c-1,4.1-6.4,5.2-9.2,2.4c-3.1-3.1-4.4-8.4-5.8-12.4c-2.2-6.5-4.2-13-6.1-19.6c-1.7-6.1-3.4-12.2-4.6-18.3c-0.1-0.7-0.3-1.6-0.5-2.5c-5.7-0.1-11.6-1.9-17.2-3.1c0.4,1.2,0.9,2.4,1.3,3.3c0.9,2.6,1.8,5.2,2.7,7.8c1.9,6.1,2.8,12.5,3.9,18.8c2.2,13.3,5.4,26.4,8.1,39.6c2.6,12.9,4.5,26.2,8.1,38.9c1.7,6.1,3,12.4,4,18.7c0.2,0,0.5,0,0.7,0c0.9,0.1,1.8,0.2,2.7,0.2c0.1,0,0.7-0.1,0.9-0.1c2-7.1,6.4-13,8.8-20.2c1.5-4.4,2.3-9.1,3.5-13.6c1.3-4.6,2.5-9.3,3-14.1c0.7-6.9,11.4-7.2,11,0c-0.5,9.1,2.1,18.6,3.9,27.5c1.4,6.6,5,12.4,8.1,18.4c0.5,0.4,1,0.9,1.4,1.6c0.3,0.5,0.6,1,0.8,1.6c0.4,0.4,0.7,0.9,1,1.6c0.2,0.4,0.5,0.7,0.9,0.9c3.8-38.9,21.4-74.9,25.8-113.6C427.9,199.7,427.6,199.7,427.3,199.7z"/><path fill="#010101" d="M487.4,302.2c0.1-1.1-0.1-2.2-0.8-3.4c-5.4-9.4-17.9-16.7-19.2-28.1c-0.5-4.3,0.1-8.6,1-12.8c0.5-2.5,1.9-8.1,5.1-8.6c1.7-0.3,3-1.1,3.7-2.3c2.5-0.5,4.6-2.4,4.3-5.6c-0.7-7.1-7-10.3-12.7-13.1c-6.9-3.4-11.6-9.6-12.2-17.3c-0.4-5.2,0.7-10.8,1.9-15.8c0.8-3.5,2.4-11,7-10.8c6.8,0.2,6.2-9.9-0.1-10.9c-0.3-0.2-0.6-0.4-0.9-0.5c-13.3-6.3-24.8-14.8-29.4-29.4c-1.3-4.2-1.7-8.9-2-13.3c-0.1-2.5-0.1-4.9,0.4-7.4c0.2-0.9,0.4-1.6,0.8-2.4c0,0,0-0.1,0-0.1c0.1,0,0.1,0,0.2,0c7.1-0.4,6.2-11.4-0.8-11c-0.5,0-0.9,0.1-1.4,0.2c-5.4-1.7-10.9-2.1-16.5-2.8c-6.2-0.8-12.3-5.6-17-9.4c-4.6-3.7-7.9-7.4-9.7-13.1c-1.6-5.4-1-11.7,0.9-16.9c2.1-5.5-4.5-9.9-8.1-7.3c-0.5-0.3-1.1-0.5-1.8-0.6c-6-0.9-11.4,4.6-15.7,7.9c-6.7,5.2-13.9,8.7-22.7,7.9c-17.2-1.5-35.7-16.7-35.2-34.8c0.2-5-5.2-6-8.5-3.7V37c-0.4,0.3-0.8,0.7-1.1,1.2c-3.8,5.4-3.8,13.9-9.2,17.8c-6.1,4.4-13.9,7.1-21.3,7.6c-15.9,1.2-32-2.7-43.7-13.9c-3.8-3.6-9.1,0.1-9.1,4.6c0,10.8-1.4,23.4-11.3,29.9c-6.7,4.4-17.2-0.1-25.3-3.1c-1.1-1.1-2.7-1.7-4.4-1.7h-2c-5.4,0-6.2,6.4-3,9.5c-1.3,3.8-1.6,7.5-2.3,11.4c-0.8,4.7-8.1,6.1-12,7.1c-13.4,3.5-28.5-1.2-40.8-6.5c-4.2-1.8-7.7,1.1-7.9,5.4c-0.7,15.5,8.8,32.3-4,45.1c-9.9,9.9-26.8,11.1-39.9,11.9c-5.2,0.3-6.2,6.3-3.2,9.6c9.8,10.7,17.4,21.6,17.2,36.7c-0.2,14.8-13.5,22.8-24.7,29.6c-2.6,1.6-3,5.2-1.5,7.6c6.2,9.8,16.4,16.6,19.5,28.2c1.7,6.3,2.4,13.9,1.8,20.4c-0.6,6.4-7.8,9.8-11.9,13.7c-2.8,2.6-1.1,6.9,1.7,8.6c11.7,7,23.9,13,30,26c3.3,7.1,9.2,25.1-1.4,28.9c-6.2,2.2-3.7,10.5,2.2,10.7c12.2,0.3,23.7,7.3,32.9,14.6c3.1,2.4,11,14.3,8.5,19.2c-3,1.6-4.2,5.8-2.5,8.3c1.4,2.7,4.6,4.3,7.7,2c0,0,0,0,0.1-0.1c9.4-0.1,19.5-1.7,28.3,1.8c10.2,4.1,13.9,15.6,20,23.7c1,1.3,2.3,2,3.6,2.2c1.3,1.6,3.4,2.5,5.8,1.9c9.3-2.3,17.6-7.1,26.5-10.5c10.3-3.9,23.4-3,33.9-1.1c8.4,1.5,15,4.6,21.8,9.9c6.3,4.9,12.2,10.1,19.6,13.4c4.5,2,8.2-2.1,7.9-5.7c3.9-3.2,7.1-7.4,10.3-11.1c4.8-5.6,11.2-10.1,17.8-13.3c6.6-3.1,13.5-4.6,20.8-4.6c7.2,0,14.6,0.6,21.4-2c2.6-1,3.6-3.2,3.5-5.3c1.2-1,2.1-2.4,2.2-4.3c1.3-30.9,36.3-44.9,62.9-45.1c4.3,0,5.6-4,4.5-7.1c5.1-12.1-1.4-25.3,4.3-37.3c5.4-11.2,18-23.2,31.1-22.6C488.3,310.6,489.4,305.5,487.4,302.2z M446.3,321.9c-4.4,6-7,12.8-7.5,20.2c-0.5,7.4,2.4,16.3-0.6,23.2c-0.2,0.4-0.3,0.8-0.4,1.1c-32,2-65.9,20.9-68.1,55.6c-6.3,1.8-13.5,0.8-20,0.9c-7.6,0.1-15.3,2.6-22.1,5.8c-6.8,3.2-12.9,7.7-18.4,12.8c-4.7,4.4-7.9,10.5-13.4,14c-5.1-3.3-9.7-7.4-14.6-11.1c-7.8-5.8-16.1-8.7-25.6-10.3c-11.4-2-23.2-1.6-34.4,0.9c-9.5,2.1-17.8,7.7-27.1,10.6c-6.6-9-10.6-18.7-20.5-25c-9.2-5.9-20-4.7-30.5-4.4c0.5-7.9-4.3-16.8-8.9-22.8c-4.6-6.1-11.7-10.2-18.3-13.9c-4.4-2.4-8.9-4.3-13.7-5.6c4.5-8.7,2.7-21.2-0.6-30.3c-3.1-8.5-8.1-15.9-15-21.8c-4.6-4-9.9-7.1-15.2-10.2c3.7-3.1,7-6.3,8.6-11.5c2.1-7.2,0.9-15.8-0.5-23c-1.4-7.4-3.4-13.7-8-19.8c-3.3-4.3-7.2-8.1-10.6-12.3c12.3-8,23.2-17.7,24.5-33.5c1.2-15.1-4.7-27.4-13.4-38.5c13-1.5,26.1-4.9,35.8-13.8c7.2-6.6,10.3-15.2,10.7-24.8c0.3-7-1.5-13.8-2.5-20.6c12.6,4.5,26.1,7,39.3,4.1c6.7-1.5,14.6-4.1,18.6-10.2c1.8-2.8,2.2-5.9,2.6-9.1h-0.5V92c11.3,3.6,22.6,7.7,33.7,0.4c9.3-6.1,12.9-17,14.2-27.8c12.2,7.9,27,10.6,41.7,10c9.2-0.4,17.8-3.5,25.7-8c3.6-2,6.3-4.5,8.5-7.8c6,11.5,17.8,20.2,29.8,24.8c11.2,4.3,22.3,2.7,32.9-2c3.3-1.5,6.1-3.8,9-6c1.5-1.2,3.1-2.4,4.6-3.5c0.6-0.4,1.2-0.8,1.7-1.2c-1.7,10.8,0.6,22.1,8.7,30.1c5.3,5.3,11.5,9.8,18.2,13.2c5.9,3,12.2,3,18.3,4c-2.5,8.3-0.4,20.1,1,26.3c3.5,15.9,15.4,27.1,29,34.7c-5.3,7.3-6.9,19.4-7.4,26.5c-0.6,8.6,1.2,16.6,6.9,23.2c2.7,3.1,5.7,5.8,9.3,7.9c1.1,0.6,3.8,1.7,5.9,2.8c-9.3,4.8-11.4,18.3-11.5,28.1c-0.2,14.3,10.4,22,18,32.2C462.7,303,453,312.5,446.3,321.9z"/><path fill="#010101" d="M224.9 289.8c-.9-11.6-.3-23.1-1.9-34.7-3.2-22.8-5-45.5-3.2-68.6.2-3.2-2.7-5.3-5.5-5.5l-31.9-2.5c-2.8-.2-5.7 2.7-5.5 5.5.6 8.4 2.2 16.7 2.2 25.1 0 8.8-2 17.4-1.5 26.2.5 10.2 2.2 20.1 3.1 30.2-6.3-12.2-10.6-25.6-17.2-37.5-5.6-10.2-10.3-20.8-15.1-31.3-4.3-9.2-12.3-10.1-21-10.6-3.1.7-6 1.6-8.5 2.9-.1.2-.2.5-.2.7-.5 0-1 .1-1.4.2-1.2.7-2.3 1.5-3.2 2.4-.2 1.3-.6 2.6-1.1 3.7-1.5 22 0 44.1 2.7 66 2.6 20.4 8 41.8 4.4 62.4-.6 3.3 1.1 6 4.2 6.8 10.6-.1 21.2-1.1 31.8-1 1.1-1.1 1.8-2.7 1.9-4.2.8-11.2-.5-22.2-1.6-33.3 7.4 11.3 15.5 22.2 21.6 34.4.4.7.8 1.3 1.3 1.7.5-.1 1-.1 1.4-.2 3.9-.4 7.7-.6 11.6-.7 3.3-.2 6.6-.4 9.9-.6 6.3-2.2 12.5-4.7 19.2-4.4 2.2.1 4.9-1.7 5.3-4C227.9 309.1 225.6 299.6 224.9 289.8zM216.1 312.2c-9.6 1.3-18 6.9-27.8 7.2-.7 0-1.4.2-1.9.4-.3-.4-.6-.8-.9-1.2-9.1-17.1-22.1-31.9-30.4-49.6-2.1-4.6-7.6-3.1-9.5.4-1.2.9-2 2.3-1.9 4.2.2 15.2 3.2 30.3 3.1 45.6-.1 0-.2 0-.3-.1 0 .8-.4 1.5-1.3 1.9-1.6.7-3.8 1.3-5.6.5l-8.4-.7c1.9-18.3-1.7-36.7-4.3-54.8-3.3-22.8-4.8-46.1-3.3-69.2 4.3.2 10-.9 13.3 2.3 2.6 2.5 3.9 7.7 5.4 10.9 4.5 9.7 9.4 19.1 14.3 28.6 8.6 16.7 13.7 35 25.8 49.7 3.3 4 9.1.6 9.4-3.8 1.2-16.6-1.9-32.8-3.5-49.3-.8-8.7 1.3-17.5 1.5-26.2.2-6.4-.8-12.8-1.6-19.2l20 1.6c-1.1 19.8 0 39.7 2.8 59.3 1.6 11.2 2.5 22.2 2.6 33.6C213.8 293.5 216.6 303 216.1 312.2zM312.2 290.1c-6.4-8.2-19.5-6.7-28.7-7.3-2.5-.2-5.1 0-7.6-.2-2.4-.2-2.3-1.2-2-3.2.2-1.2.6-2.4 1-3.6.1-.4.3-.7.5-.9 1.6-.4 3.3-.2 4.9-.2 9 .2 17.6 3 26.5 3.8 3.2.3 5.3-2.7 5.5-5.5 1-11.6 2.7-23.2 2.7-34.9 0-2.8-2.5-5.8-5.5-5.5-11.5 1.1-23 1-34.6 1.5-1.2.1-2.5.2-3.7 0-.1 0-.1 0-.2-.1-.2-.5-.4-1.4-.4-1.3-1-3.5-1.8-6.9-1.5-10.2 14.2 1.2 28.5-1.2 42.6-3.1 2.5-.3 4-3.1 4.1-5.3.4-7.5-.9-15.3-2.5-22.5-1.7-7.6-5.7-13.5-14-14.1-9.3-.7-18.8.1-28.2-.6-5.5-.4-10.9-.8-16.4-.8-6.6.1-13 1.8-19.6.6-3.5-.6-6 1.7-6.7 4.4-.9.9-1.5 2.1-1.5 3.8 0 23.4 3.9 46.5 6.4 69.8 1.2 11.4 1.4 22.6 1.1 34-.2 8.6-1.6 20.7 3.5 28.2 6.3 9.3 19.2 9.1 30 9 5.1-.5 10.2-.8 15.4-.8 11.6 0 23.2-.4 34.8-.2 0-.1 0-.2 0-.3C319.3 312.4 320.2 300.3 312.2 290.1zM306.6 313.5c-2.1.1-4.3 0-6.4-.1-5.3-.2-10.7-.6-16-.8-5.1-.2-14.4-1.7-18.6 2.3-5.3 0-10.6-.1-15.7-1.9-2.1-.7-3.2-2.3-3.7-4.4-1.2-5.1-.9-10.9-.8-16.1.1-12.1.3-23.8-.9-35.9-2.2-22.9-6.2-45.6-6.5-68.6 7.4.3 14.7-.9 22.2-.7 9.5.3 19 1.3 28.6 1.5 3.4.1 6.9-.7 10.3-.2 3 .4 3.1 3.5 3.7 5.9 1.2 4.8 2 9.9 2.2 14.9-13.2 1.8-26.5 3.5-39.9 1.7-2.6-.3-4.4 2-5.3 4-2.8 6.7-1.2 12.5.1 19.3.9 4.8 3.2 8.3 7.8 10.1 4.6 1.9 11.7.5 16.5.4 6.6-.1 13.2-.3 19.8-.8-.4 7.6-1.2 15.2-2 22.8-7.9-1.2-15.7-3.2-23.8-3.2-4.7 0-9.1.9-11.9 5-3 4.3-4.1 11-3.1 16.1 1.2 5.9 7.5 8.2 12.7 8.8 6 .7 12.2.3 18.2.7 5.5.3 9.7 1.5 11.9 6.9 1.7 4.1 2.1 8.2 2.1 12.3C307.7 313.4 307.2 313.5 306.6 313.5zM431 190.6c-.9-1-2.1-1.7-3.7-1.9 1.7.2-1.9-.3-2.3-.4-2.2-.4-4.5-.8-6.7-1.1-4.5-.7-9.2-1.5-13.8-1.2-2.5.1-4.5 1.6-5.3 4-2.7 8.6-4.6 18.3-5.2 27.3-.2 2.2-.2 4.6-.3 7-4.1-7-5.6-15.3-9.5-22.4-1.7-3.2-6.1-3.6-8.6-1.2-4.4 4.1-6.9 10-9.1 15.4-.4.9-.7 1.8-1.1 2.7-1.3-4-2.5-8.1-3.7-12.1-1.6-5.6-3.1-11.2-4.5-16.8-.5-2.1-1-4.2-1.4-6.4 0-.2-.1-.3-.1-.4 1.8-1.8 1.4-4.5-.1-6.5-6.7-1-13.4-2.1-20.1-3-5.8-.7-12.2-.6-18.1-1.7-1 1.1-1.4 2.7-1.3 4.2-.2.5-.4 1.1-.4 1.8l-.1 1.1c-.1.9 0 1.7.3 2.3.6 3.6 2.4 7.4 3.5 10.6 2 5.8 3.3 11.6 4.4 17.6 2.4 13.3 5.2 26.5 7.9 39.8 2.7 13 5.1 26 8 39 2.2 9.8 4.8 19.5 6.1 29.5 0 .2.1.4.1.6 6.1.4 12.1 1.3 18.2 1.5.4-.1.8-.3 1.2-.5.4-.2.8-.5 1.2-.9 1.9-.7 3.4-2.3 3.7-4.8.9-7.7 6.7-14.6 9.4-21.9 2 9.1 7.5 16.1 10.8 24.8.5 1.4 1.4 2.4 2.5 3 2.2 3.1 6.3 4.6 10.2 5 2.1-.1 4.2-.3 6.3-.5 2-.8 3.4-2.5 3.5-5 2.6-42.6 23.2-81.7 26.8-124.3C440.2 189.6 434.4 188.2 431 190.6zM402.4 313.3c-.4-.2-.7-.5-.9-.9-.3-.6-.6-1.2-1-1.6-.2-.5-.5-1-.8-1.6-.4-.7-.9-1.2-1.4-1.6-3.1-6-6.7-11.8-8.1-18.4-1.8-8.9-4.4-18.4-3.9-27.5.4-7.2-10.3-7-11 0-.5 4.8-1.7 9.5-3 14.1-1.2 4.5-2 9.2-3.5 13.6-2.4 7.2-6.8 13-8.8 20.2-.2 0-.8.1-.9.1-.9 0-1.8-.1-2.7-.2-.2 0-.5 0-.7 0-1-6.3-2.3-12.6-4-18.7-3.5-12.7-5.5-26-8.1-38.9-2.7-13.2-5.8-26.3-8.1-39.6-1.1-6.3-1.9-12.7-3.9-18.8-.8-2.6-1.8-5.2-2.7-7.8-.3-1-.8-2.2-1.3-3.3 5.7 1.2 11.5 2.9 17.2 3.1.2.9.4 1.8.5 2.5 1.3 6.2 2.9 12.3 4.6 18.3 1.9 6.6 3.8 13.2 6.1 19.6 1.4 4 2.7 9.3 5.8 12.4 2.8 2.9 8.3 1.8 9.2-2.4 1.2-5 2.9-9.9 4.8-14.7.7-1.7 1.4-3.6 2.3-5.5 1.2 3.3 2.4 6.7 3.8 10 2.3 5.2 7.2 10.2 7.8 16 .6 4.8 7.6 8.3 10.2 2.8 3.5-7.4 4-15.5 4.5-23.6.5-8 1.7-16.3 3.9-24.2 6.3.4 12.5 2.1 18.7 2.8.3 0 .7 0 1 0C423.8 238.5 406.2 274.5 402.4 313.3z"/></svg>