<svg xmlns="http://www.w3.org/2000/svg" viewBox="0 0 30 30"><path fill="#bae0bd" d="M6.515,22.5c0.26-4.455,3.966-8,8.485-8s8.226,3.545,8.485,8H6.515z"/><path fill="#5e9c76" d="M15,15c4.073,0,7.444,3.059,7.938,7H7.062C7.556,18.059,10.927,15,15,15 M15,14 c-4.971,0-9,4.029-9,9h18C24,18.029,19.971,14,15,14L15,14z"/><path fill="#ffeea3" d="M15 1.5A5.5 5.5 0 1 0 15 12.5A5.5 5.5 0 1 0 15 1.5Z"/><path fill="#ba9b48" d="M15,2c2.757,0,5,2.243,5,5s-2.243,5-5,5s-5-2.243-5-5S12.243,2,15,2 M15,1c-3.314,0-6,2.686-6,6 s2.686,6,6,6s6-2.686,6-6S18.314,1,15,1L15,1z"/><path fill="#f78f8f" d="M14.145,28.5c-0.64-0.387-3.472-1.903-8.645-1.996v-11c5.381,0.106,8.199,1.896,8.228,1.915 l0.125,0.081h2.295l0.125-0.08c0.029-0.019,2.874-1.809,8.229-1.915v11c-5.172,0.093-8.004,1.609-8.645,1.996H14.145z"/><path fill="#c74343" d="M6,16.02c4.858,0.2,7.432,1.803,7.455,1.818L13.704,18H14h2l0.295-0.002l0.246-0.156 c0.027-0.017,2.601-1.621,7.459-1.821v9.997c-4.692,0.17-7.429,1.498-8.279,1.982h-1.443c-0.849-0.484-3.587-1.812-8.279-1.982 V16.02 M25,15c-5.92,0-9,2-9,2h-2c0,0-3.08-2-9-2v12c6.055,0,9,2,9,2h2c0,0,2.945-2,9-2V15L25,15z"/><g><path fill="#ffeea3" d="M25,24.5c-1.378,0-2.5-1.122-2.5-2.5s1.122-2.5,2.5-2.5h1c0.276,0,0.5,0.224,0.5,0.5v4 c0,0.276-0.224,0.5-0.5,0.5H25z"/><path fill="#ba9b48" d="M26,20v4h-1c-1.103,0-2-0.897-2-2s0.897-2,2-2H26 M26,19h-1c-1.657,0-3,1.343-3,3s1.343,3,3,3h1 c0.552,0,1-0.448,1-1v-4C27,19.448,26.552,19,26,19L26,19z"/></g><g><path fill="#ffeea3" d="M4,24.5c-0.276,0-0.5-0.224-0.5-0.5v-4c0-0.276,0.224-0.5,0.5-0.5h1c1.378,0,2.5,1.122,2.5,2.5 S6.378,24.5,5,24.5H4z"/><path fill="#ba9b48" d="M5,20c1.103,0,2,0.897,2,2s-0.897,2-2,2H4v-4H5 M5,19H4c-0.552,0-1,0.448-1,1v4c0,0.552,0.448,1,1,1 h1c1.657,0,3-1.343,3-3S6.657,19,5,19L5,19z"/></g><path fill="#f7a3a3" d="M17,17.595c-0.296,0.145-0.453,0.242-0.459,0.246l-0.246,0.156L16,18h-2h-0.296l-0.248-0.161	c-0.006-0.004-0.161-0.1-0.455-0.244v9.801c0.587,0.24,1.026,0.461,1.279,0.604h1.443c0.252-0.144,0.692-0.364,1.279-0.604V17.595z"/></svg>