<?xml version="1.0" encoding="utf-8"?>
<svg xmlns="http://www.w3.org/2000/svg" viewBox="0 0 30 30" fill="#000000"><path d="M 15 3 A 1.0001 1.0001 0 0 0 14.869141 3.0078125 C 14.489559 3.0129954 14.121107 3.0323397 13.773438 3.078125 C 7.2664832 3.8455093 4 10.677692 4 17 C 4 19.416 6 22.063 6 23 C 6 23.937 4 23.935 4 25 C 4 26.065 4.895 27 6 27 L 15 27 L 24 27 C 25.105 27 26 26.065 26 25 C 26 23.935 24 21.937 24 21 C 24 20.063 26 19.416 26 17 C 26 10.677692 22.733517 3.8455092 16.226562 3.078125 C 15.891316 3.0339757 15.534829 3.0181987 15.169922 3.0117188 A 1.0001 1.0001 0 0 0 15 3 z M 15 5 C 17.791215 5 19.156667 6.2473908 19.996094 7.5429688 C 20.83552 8.8385466 21.007813 10.128906 21.007812 10.128906 L 21.083984 10.712891 L 21.632812 10.929688 C 21.632812 10.929688 23 11.393318 23 13 C 23 13.614811 22.726812 14.057911 22.207031 14.589844 C 21.687251 15.121777 20.94956 15.63929 20.294922 16.291016 C 19.942387 16.641983 19.815745 16.994653 19.681641 17.376953 C 19.547536 17.759253 19.437562 18.181399 19.324219 18.638672 C 19.097531 19.553218 18.860069 20.608287 18.519531 21.591797 C 18.178994 22.575307 17.733378 23.470778 17.173828 24.066406 C 16.61428 24.662035 15.996669 25 15 25 C 14.003331 25 13.385722 24.662035 12.826172 24.066406 C 12.266622 23.470778 11.821006 22.575307 11.480469 21.591797 C 11.139931 20.608287 10.902469 19.553218 10.675781 18.638672 C 10.562438 18.181399 10.452464 17.759253 10.318359 17.376953 C 10.184255 16.994653 10.057613 16.641983 9.7050781 16.291016 C 9.0504402 15.63929 8.3127492 15.121777 7.7929688 14.589844 C 7.2731883 14.057911 7 13.614811 7 13 C 7 11.393318 8.3671875 10.929687 8.3671875 10.929688 L 8.9160156 10.712891 L 8.9921875 10.128906 C 8.9921875 10.128906 9.1644801 8.8385466 10.003906 7.5429688 C 10.843333 6.2473908 12.208785 5 15 5 z M 13.339844 9.0039062 C 12.90702 8.9512559 12.603437 9.4901875 12.367188 9.9609375 C 12.098187 10.678937 11.559641 11.217172 10.931641 11.576172 C 10.482641 11.755172 10.033672 11.845922 9.7636719 12.294922 C 9.4056719 13.192922 10.213484 14 11.021484 14 C 12.367484 14 13.174891 12.832172 13.712891 11.576172 C 13.891891 10.948172 14.340203 9.4234531 13.533203 9.0644531 C 13.465953 9.0308281 13.401676 9.0114277 13.339844 9.0039062 z M 16.658203 9.0039062 C 16.596277 9.0114961 16.532219 9.0307031 16.464844 9.0644531 C 15.656844 9.4234531 16.105156 10.950125 16.285156 11.578125 C 16.824156 12.833125 17.632516 14 18.978516 14 C 19.786516 14 20.593375 13.191922 20.234375 12.294922 C 19.965375 11.845922 19.517359 11.756172 19.068359 11.576172 C 18.440359 11.217172 17.901812 10.680891 17.632812 9.9628906 C 17.397438 9.4921406 17.091684 8.9507773 16.658203 9.0039062 z M 14.998047 13 C 14.311047 13 13.279297 15.8125 13.779297 15.8125 C 14.379297 15.8125 14.7 15.197266 15 15.197266 C 15.3 15.197266 15.779688 15.8125 16.179688 15.8125 C 16.779688 15.8125 15.685047 13 14.998047 13 z M 15.050781 17 C 13.850781 17 13 17.702734 13 18.302734 C 13 19.288734 13.849219 19.25 13.949219 20.75 C 13.949219 22.35 14.4 24 15 24 C 15.7 24 16.050391 22.650781 16.150391 21.050781 C 16.250391 18.950781 17 19.084734 17 18.302734 C 17 17.908734 16.250781 17 15.050781 17 z" fill="#000000"/></svg>
