<svg xmlns="http://www.w3.org/2000/svg" viewBox="0 0 48 48"><path fill="#546E7A" d="M5 7H43V33H5z"/><path fill="#BBDEFB" d="M7 9H41V30H7z"/><path fill="#FFA726" d="M19,22.5c0,0.8-0.7,1.5-1.5,1.5S16,23.3,16,22.5s0.7-1.5,1.5-1.5S19,21.7,19,22.5 M32,22.5c0-0.8-0.7-1.5-1.5-1.5S29,21.7,29,22.5s0.7,1.5,1.5,1.5S32,23.3,32,22.5"/><path fill="#8BC34A" d="M27.8,31L27.8,31L24,31.8L20.3,31c0,0-8.3,1.5-8.3,10h24C36,32.6,27.8,31,27.8,31"/><path fill="#FF9800" d="M24,33c-3.1,0-4-2-4-2v-4h8v4C28,31,27.1,33,24,33z"/><path fill="#33691E" d="M24,35c3.1,0,5-1,5.9-3.3c-0.9-0.4-1.6-0.6-2-0.7c-0.7,1-1.8,1.9-4,1.9c-2.2,0-3.1-0.8-4-1.9c-0.4,0.1-1.1,0.3-2,0.7C18.9,33.9,20.9,35,24,35z"/><path fill="#424242" d="M27.2,12.6L26.4,11H24c-4.9,0-8,4.3-8,8.2V21l1,1c0,3.8,3,7,3,7h8c0,0,3-3.2,3-7l1-1v-0.8C32,17,31.2,13.4,27.2,12.6z"/></svg>